<svg viewBox="0 0 328 164" fill="none" xmlns="http://www.w3.org/2000/svg">
<g clip-path="url(#clip0)">
<path d="M1608.1 -58.2H-4435.2V4815.5H1608.1V-58.2Z" stroke="black" stroke-width="2.8074" stroke-miterlimit="10"/>
<path d="M240.1 137.2H78.5999C75.6999 137.2 73.3999 134.9 73.3999 132V22.4C73.3999 19.5 75.6999 17.2 78.5999 17.2H240.1C243 17.2 245.3 19.5 245.3 22.4V131.9C245.3 134.8 243 137.2 240.1 137.2Z" fill="#EDF0F4"/>
<path d="M128.2 137.2H77.9999C75.4999 137.2 73.3999 135.1 73.3999 132.6V21.8C73.3999 19.3 75.4999 17.2 77.9999 17.2H128.2V137.2Z" fill="#AEB9C1"/>
<path d="M111.1 71.1H90.1C88.9 71.1 88 70.2 88 69V29.8C88 28.6 88.9 27.7 90.1 27.7H111.2C112.4 27.7 113.3 28.6 113.3 29.8V69C113.2 70.2 112.3 71.1 111.1 71.1Z" fill="white"/>
<path d="M270.9 113C271.1 113 275.5 113.9 277.8 117.2C278.3 117.8 278.8 122.1 277.8 120.7C275.8 118.2 275.6 115.6 271 113.4C271 113.3 270.9 113 270.9 113Z" fill="#9FCB9F"/>
<path d="M270.1 112.8C270.4 112.7 277.6 110.5 282.1 112.7C283.9 113.6 283.3 114.9 281.1 114.3C277 113.1 275.6 113.1 270.3 113.1C270.4 113.1 270.1 112.8 270.1 112.8Z" fill="#9FCB9F"/>
<path d="M272.5 113.4C272.8 113.5 279.9 112.5 283 119.6C284.2 122.2 281.1 119.3 279.6 117.8C275.6 113.9 275.5 114.7 271.8 113.9C271.9 113.8 272.5 113.4 272.5 113.4Z" fill="#9FCB9F"/>
<path d="M269.3 112.4C269.5 112.5 273.3 114 274.9 117.2C275.2 117.8 275.1 121.4 274.4 120.1C273 117.6 273.1 115.5 269.4 112.7C269.3 112.6 269.3 112.4 269.3 112.4Z" fill="#9FCB9F"/>
<path d="M269 112.4C269.2 112.3 274.1 108.8 277.9 109.6C280.8 110.2 279.4 110.9 277.7 111C274.3 111.3 272.9 111.5 269.2 112.5C269.3 112.5 269 112.4 269 112.4Z" fill="#9FCB9F"/>
<path d="M268.5 112.2C268.6 112.1 270.1 109.1 272.7 108.7C273.8 108.5 274.2 109.2 273.1 109.6C271.1 110.3 270.6 110.7 268.7 112.2H268.5Z" fill="#9FCB9F"/>
<path d="M268.5 112.4C268.2 112.4 268 112.4 268.1 112.6C268.4 113 269.2 114 269.3 114.7C269.8 117.2 271.2 118.1 271.2 118.1C271.7 118.4 271.2 116.4 270.8 114.6C270.7 113.2 268.5 112.4 268.5 112.4Z" fill="#9FCB9F"/>
<path d="M259.5 97.8C259.5 97.4 257.2 85.4 255.3 82.3C254.2 80.4 252.8 80.5 254.2 85C255.5 89 259.3 97.9 259.3 97.7L259.5 97.8Z" fill="#9FCB9F"/>
<path d="M259.6 97.9C259.4 97.5 255.1 87.1 249.4 83.7C247.1 82.3 246.2 84.1 248.6 86C253 89.7 255.3 92.1 259.4 97.9C259.4 98.1 259.6 97.9 259.6 97.9Z" fill="#9FCB9F"/>
<path d="M246.2 101.8C246 101.5 241.6 94.9 236.5 93.7C234.4 93.2 234 94.7 236.2 95.6C240.3 97.4 241.5 98.3 245.8 101.8C245.8 101.8 246.2 101.8 246.2 101.8Z" fill="#9FCB9F"/>
<path d="M245.1 101.1C244.8 101 238.6 96.7 232.3 101.8C230 103.7 234.2 102.4 236.3 101.7C241.9 100 241.6 100.8 245.4 101.8C245.5 101.8 245.1 101.1 245.1 101.1Z" fill="#9FCB9F"/>
<path d="M246.3 101.8C246.1 101.7 241.6 100.4 237.8 102.4C237.1 102.8 234.5 106.4 236.1 105.7C239.2 104.3 240.6 102.1 246 102.1C246.1 102.1 246.3 101.8 246.3 101.8Z" fill="#9FCB9F"/>
<path d="M248.8 103.4C248.6 103.3 244.5 102.1 241.1 103.7C240.4 104 238.2 107 239.7 106.4C242.5 105.3 243.7 103.4 248.6 103.6C248.6 103.7 248.8 103.4 248.8 103.4Z" fill="#9FCB9F"/>
<path d="M247.8 102.9C247.7 102.6 246.3 96.5 242.8 94.4C240.1 92.8 240.7 94.3 241.9 95.6C244.4 98.2 245.3 99.4 247.5 102.7C247.5 102.9 247.8 102.9 247.8 102.9Z" fill="#9FCB9F"/>
<path d="M249.7 103.6C249.7 103.4 249.7 99.9 247.5 98.3C246.6 97.6 245.9 98.1 246.7 99C248.2 100.6 248.5 101.3 249.5 103.6C249.5 103.5 249.7 103.6 249.7 103.6Z" fill="#9FCB9F"/>
<path d="M259.6 98C259.4 97.7 254 90 248.4 88.9C245.8 88.4 245.8 90.3 248.2 91C252.1 92.1 256.5 95.1 259.4 98.1C259.4 98.2 259.6 98 259.6 98Z" fill="#9FCB9F"/>
<path d="M260 99.5C259.8 99.2 254.3 93.1 249.3 92.6C247 92.4 247.2 94.1 249.4 94.4C252.9 95 257.1 97.2 259.9 99.6C259.9 99.7 260 99.5 260 99.5Z" fill="#9FCB9F"/>
<path d="M259.6 98.7C259.6 98.5 259.3 92.9 263.4 90.3C265.3 89.1 266.5 90 264.9 91.2C262.2 93.2 260.3 96.2 259.8 98.7H259.6Z" fill="#9FCB9F"/>
<path d="M260.1 100.7C259.2 99.1 255.5 97.7 254.1 98.6C251.8 100.3 253.2 100 255 100.2C256.9 100.4 258.8 100.5 259.8 101.1C260.6 101.5 260.1 100.7 260.1 100.7Z" fill="#9FCB9F"/>
<path d="M260.3 100.9C260.9 99.5 263.8 98 265 98.7C267 99.9 265.9 99.8 264.4 100.1C262.9 100.4 261.3 100.7 260.5 101.2C259.9 101.6 260.3 100.9 260.3 100.9Z" fill="#9FCB9F"/>
<path d="M260.2 98.1C260.4 96.5 262.4 94.7 264 95.2C267 96.2 267.4 99 264.3 97.1C263.1 96.4 261.2 98.2 260.2 100.1C259.9 100.8 260.2 98.1 260.2 98.1Z" fill="#9FCB9F"/>
<path d="M259.3 98.1C259.2 97.7 258.3 92.3 258.3 86.4C258.3 83.6 260.9 85.5 260.6 88.8C260.3 92.7 259.2 94.3 259.4 98.1C259.5 98.1 259.3 98.1 259.3 98.1Z" fill="#9FCB9F"/>
<path d="M272.8 114.3C272.2 113.7 271.4 113.2 270.6 112.8C270.2 112.6 269.8 112.4 269.4 112.3C269 112.2 268.5 112 268.1 112C267.6 112 267.1 111.9 266.7 112.1C266.5 112.2 266.2 112.3 266 112.5C265.8 112.7 265.7 113 265.6 113.2C265.3 114.1 265.1 114.9 264.9 115.8C264.5 117.5 264.2 119.3 263.9 121C263.6 122.7 263.3 124.5 263.1 126.2C262.6 129.7 262.2 133.2 261.9 136.7C261.7 138.5 261.6 140.2 261.5 142C261.5 142.9 261.4 143.8 261.4 144.6C261.4 145 261.4 145.5 261.4 145.9C261.4 146.1 261.4 146.3 261.4 146.6C261.4 146.7 261.4 146.8 261.4 146.9C261.4 147 261.4 147 261.4 147.1V147.2C261.4 147.2 261.4 147.3 261.5 147.2H261.4V147.1C261.4 147 261.4 147 261.4 146.9C261.4 146.8 261.4 146.7 261.4 146.6C261.4 146.4 261.4 146.2 261.4 145.9C261.4 145.5 261.5 145 261.5 144.6C261.6 143.7 261.7 142.9 261.8 142C262 140.3 262.3 138.5 262.5 136.8C263 133.3 263.5 129.8 264 126.3C264.3 124.6 264.5 122.8 264.8 121.1C265.1 119.4 265.3 117.6 265.7 115.9C265.9 115 266 114.2 266.2 113.3C266.3 113 266.5 112.7 266.8 112.6C267.1 112.4 267.5 112.4 268 112.4C268.8 112.4 269.7 112.7 270.5 113C270.9 113.2 271.3 113.3 271.7 113.5C272.1 113.8 272.5 114.1 272.8 114.3Z" fill="#70B070"/>
<path d="M252.5 106.1C252.7 106.4 252.9 106.6 252.5 106.5C251.8 106.4 250.1 106.2 249.1 106.4C245.7 107.1 243.8 106.2 243.8 106.2C243.1 105.9 245.9 105.4 248.3 104.9C250.2 104.5 252.5 106.1 252.5 106.1Z" fill="#9FCB9F"/>
<path d="M250.3 122.5C250 122.6 243.8 124.4 241.6 128.2C240.7 129.7 241.8 130.4 243 128.9C245.4 126.1 246.4 125.4 250.1 122.9C250.2 122.8 250.3 122.5 250.3 122.5Z" fill="#9FCB9F"/>
<path d="M249.7 122.7C249.5 122.9 245.7 128.3 245.2 132.3C244.9 134.7 247.2 131.5 247.5 129.7C248.2 125 248.4 125.7 250.3 122.6C250.4 122.7 249.7 122.7 249.7 122.7Z" fill="#9FCB9F"/>
<path d="M250.3 122.4C250.2 122.5 248.8 125.2 248.9 128.6C248.9 129.3 249.2 132.6 249.6 131.2C250.2 128.5 250.6 126.8 250.4 122.6L250.3 122.4Z" fill="#9FCB9F"/>
<path d="M251.3 121.3C251.3 122.1 250.9 122.8 251.1 125.5C251.1 126 251.3 129.3 251.7 128.5C253 126 251.3 121.7 252.1 120.7C252.1 120.7 251.3 121.3 251.3 121.3Z" fill="#9FCB9F"/>
<path d="M251.2 121.6C251 121.6 246 120.4 243 123.1C240.8 125.2 242.1 125.2 243.5 124.5C246.4 123.1 247.6 122.7 250.9 121.9C251 121.9 251.2 121.6 251.2 121.6Z" fill="#9FCB9F"/>
<path d="M252 120.5C251.8 120.4 247.7 118.2 244.6 119.9C242.2 121.2 243.3 121.5 244.7 121.3C247.5 120.8 248.7 120.6 251.7 120.7C251.8 120.7 252 120.5 252 120.5Z" fill="#9FCB9F"/>
<path d="M252.9 120.2C252.8 120.1 251.2 117.7 249 117.6C248.1 117.5 247.8 118.2 248.7 118.4C250.5 118.8 250.9 119.1 252.7 120.2C252.8 120.3 252.9 120.2 252.9 120.2Z" fill="#9FCB9F"/>
<path d="M252.8 120.5C253 120.4 253.1 120.3 253.1 120.5C253.1 120.9 253 121.9 253.1 122.4C253.7 124.3 253.1 125.4 253.1 125.4C252.9 125.8 252.5 124.2 252.1 122.9C251.8 121.9 252.8 120.5 252.8 120.5Z" fill="#9FCB9F"/>
<path d="M261.8 146.9C262.2 142.6 262.4 138.3 262.6 133.9C262.7 131.7 262.7 129.6 262.7 127.4C262.7 125.2 262.7 123.1 262.6 120.9C262.5 118.7 262.5 116.6 262.3 114.4C262.2 112.2 262 110.1 261.7 107.9C261.4 105.7 261.1 103.6 260.6 101.5C260.3 100.4 260.1 99.4 259.7 98.4C259.5 97.9 259.3 97.4 259 96.9C258.7 96.4 258.4 96 258 95.6C258.4 96 258.6 96.5 258.8 97C259 97.5 259.2 98 259.3 98.5C259.6 99.5 259.8 100.6 260 101.6C260.2 102.7 260.3 103.7 260.5 104.8C260.6 105.9 260.7 106.9 260.8 108C260.9 109.1 261 110.1 261 111.2C261.1 112.3 261.1 113.4 261.2 114.4C261.3 116.6 261.4 118.7 261.4 120.9C261.5 123.1 261.5 125.2 261.5 127.4C261.5 129.6 261.5 131.7 261.6 133.9L261.8 146.9Z" fill="#409640"/>
<path d="M260.9 147.5C261.3 145.3 261.4 143.1 261.6 140.9C261.7 138.7 261.8 136.5 261.7 134.2C261.7 132 261.5 129.8 261.2 127.6C260.9 125.4 260.6 123.2 260.1 121C259.8 119.9 259.6 118.8 259.2 117.8C258.9 116.7 258.5 115.7 258.1 114.6C257.2 112.5 256.2 110.5 254.9 108.7C254.2 107.8 253.5 106.9 252.7 106.1C251.9 105.3 251 104.6 250.1 103.9C248.3 102.6 246.2 101.7 244 101.2C246.1 101.9 248.1 102.9 249.8 104.3C251.5 105.7 253 107.3 254.2 109.1C254.4 109.3 254.5 109.6 254.6 109.8C254.7 110 254.9 110.3 255 110.5L255.4 111.2L255.8 111.9C256.3 112.9 256.7 113.9 257.1 114.9C257.9 116.9 258.5 119 259 121.2C259.5 123.3 259.9 125.5 260.2 127.7C260.5 129.9 260.7 132.1 260.8 134.3C260.9 136.5 261 138.7 261 140.9C261.1 143.1 261 145.3 260.9 147.5Z" fill="#70B070"/>
<path d="M261.3 147.1C261.5 145.7 261.6 144.2 261.6 142.8C261.6 141.4 261.6 139.9 261.5 138.5C261.4 137.1 261.2 135.6 261 134.2C260.8 132.8 260.5 131.3 260.2 129.9C259.9 128.5 259.5 127.1 259 125.7C258.7 125 258.5 124.3 258.1 123.7C257.8 123 257.4 122.4 256.9 121.8C256.8 121.6 256.7 121.5 256.5 121.4C256.4 121.3 256.2 121.1 256.1 121C255.8 120.7 255.5 120.5 255.2 120.3C254.8 120.1 254.5 120 254 120C253.6 120 253.2 120 252.8 120.2C252.1 120.5 251.5 121 251 121.5C250.5 122 250.1 122.6 249.7 123.3C249.9 123 250.2 122.8 250.4 122.5C250.6 122.2 250.9 122 251.2 121.8C251.5 121.6 251.7 121.4 252 121.2C252.3 121 252.6 120.9 252.9 120.8C253.2 120.7 253.5 120.7 253.8 120.7C254.1 120.7 254.4 120.9 254.7 121C255 121.2 255.2 121.4 255.4 121.6C255.5 121.7 255.6 121.9 255.7 122C255.8 122.1 255.9 122.3 256 122.4C256.7 123.5 257.3 124.9 257.7 126.2C258.2 127.5 258.5 128.9 258.8 130.3C259.1 131.7 259.4 133.1 259.6 134.5C259.8 135.9 260 137.3 260.2 138.7C260.4 140.1 260.5 141.5 260.6 143C261.2 144.2 261.3 145.6 261.3 147.1Z" fill="#409640"/>
<path d="M256.4 155.5C256.7 155.7 266.1 155.6 266.3 155.5C270.2 153 270.3 144.8 270.2 141.8C270.2 141.2 269.7 140.7 269 140.7H253.5C252.9 140.7 252.3 141.2 252.3 141.9C252.3 144.8 252.5 152.4 256.4 155.5Z" fill="url(#paint0_linear)"/>
<path d="M300.9 99.5C312.5 87.9 312.5 69 300.9 57.4C289.3 45.8 270.4 45.8 258.8 57.4C247.5 68.7 247.2 86.8 257.9 98.5C258 98.7 258.1 98.8 258.2 98.9L258.6 99.3L258.7 99.4L258.8 99.5L277.8 118.5C278.9 119.6 280.6 119.6 281.6 118.5L300.5 99.6C300.8 99.6 300.8 99.6 300.9 99.5Z" fill="#FFD566"/>
<path d="M295 49.3H285.5H274.3H264.9C262.9 49.3 261.3 50.9 261.3 52.9V55.3V102L264.5 105.2V54.1C264.5 53.1 265.3 52.4 266.2 52.4H293.7C293.9 52.4 294.1 52.4 294.3 52.5C294.5 52.6 294.6 52.7 294.8 52.8C295.2 53.1 295.5 53.6 295.5 54.2V105.1L298.6 102V55.4V52.9C298.6 50.9 297 49.3 295 49.3Z" fill="#AEB9C1"/>
<path d="M274.8 115.6L278 118.8C278.2 119 278.5 119.2 278.8 119.4C279.5 119.7 280.3 119.7 280.9 119.4C281.2 119.3 281.5 119.1 281.7 118.8L284.9 115.6H274.8Z" fill="#CFD5E2"/>
<path d="M294.8 52.8C294.7 52.7 294.5 52.6 294.3 52.5C294.5 52.6 294.6 52.7 294.8 52.8Z" fill="white"/>
<path d="M293.7 52.4H266.2C265.2 52.4 264.5 53.2 264.5 54.1V105.2L274.9 115.6H285.1L295.6 105.1V54.1C295.6 53.5 295.3 53.1 294.9 52.7C294.7 52.6 294.6 52.5 294.4 52.4C294.1 52.4 293.9 52.4 293.7 52.4Z" fill="#CCE4F6"/>
<path d="M274.4 54.7H285.3C286.3 54.7 287.1 53.9 287.1 52.9V52.2C287.1 51.2 286.3 50.4 285.3 50.4H274.4C273.4 50.4 272.6 51.2 272.6 52.2V52.9C272.7 53.9 273.5 54.7 274.4 54.7Z" fill="#AEB9C1"/>
<path d="M277.4 53.2H282.5C282.7 53.2 282.9 53 282.9 52.7C282.9 52.4 282.7 52.2 282.5 52.2H277.4C277.2 52.2 277 52.4 277 52.7C276.9 53 277.1 53.2 277.4 53.2Z" fill="#79858C"/>
<path d="M270.3 155.8C270.2 155.8 270.1 155.8 270.1 155.8C269.7 155.7 269.6 155.3 269.7 154.9L279.1 128.1L290.3 154.8C290.4 155.1 290.3 155.5 289.9 155.7C289.6 155.8 289.2 155.7 289 155.3L279.1 131.8L270.8 155.2C270.9 155.6 270.6 155.8 270.3 155.8Z" fill="#E0BB95"/>
<path d="M290 130.1H269.3C268.7 130.1 268.2 129.6 268.2 129C268.2 128.4 268.7 127.9 269.3 127.9H290C290.6 127.9 291.1 128.4 291.1 129C291.1 129.6 290.6 130.1 290 130.1Z" fill="#E0BB95"/>
<path d="M282.6 127.2H277C276.7 127.2 276.5 127.4 276.5 127.7C276.5 128 276.7 128.2 277 128.2H282.6C282.9 128.2 283.1 128 283.1 127.7C283.1 127.4 282.9 127.2 282.6 127.2Z" fill="#605D5A"/>
<path d="M118.4 146.4H141.3V113.2H114.4C112.2 113.2 110.5 115.2 110.9 117.4L115.7 144.2C115.9 145.5 117.1 146.4 118.4 146.4Z" fill="#B3B3B3"/>
<path d="M128.2 135.7H40.7002L35.7002 106.6C35.7002 103.6 37.6002 101.1 39.9002 101.1H118.9C121.2 101.1 123.1 103.6 123.1 106.6L128.2 135.7Z" fill="#CCCCCC"/>
<path d="M128.2 135.7H48.9999L44.3999 106.6C44.3999 103.6 46.0999 101.1 48.1999 101.1H119.8C121.9 101.1 123.6 103.6 123.6 106.6L128.2 135.7Z" fill="#E6E6E6"/>
<path d="M61.6002 155.5H59.2002L60.3002 146.2H64.4002L61.6002 155.5Z" fill="#BA9061"/>
<path d="M38.9 155.5H36.5L37.6 146.2H41.7L38.9 155.5Z" fill="#BA9061"/>
<path d="M140.7 155.5H143.1L142 146.2H137.9L140.7 155.5Z" fill="#BA9061"/>
<path d="M119.3 155.5H121.8L120.7 146.2H116.6L119.3 155.5Z" fill="#BA9061"/>
<path d="M142.5 139.1H67.8999V146.5H142.5V139.1Z" fill="#B3B3B3"/>
<path d="M135 146.6H143.5C144.3 146.6 145 146 145.1 145.2L148.6 116.3C148.8 114.7 147.5 113.3 145.9 113.3H137.7C136.2 113.3 135 114.5 135 116V146.6V146.6Z" fill="#B3B3B3"/>
<path d="M131.5 130.5C131.1 132 110.3 132 110.7 130.5C108.8 130.5 113.9 111.2 115.8 111.2C115.9 110.8 116.9 110.7 117.2 110.6C118.3 110.4 119.4 110.3 120.5 110.2C123.5 110 126.5 110 129.5 110.1C130.8 110.1 132.2 110.2 133.5 110.3C134.3 110.4 135.2 110.5 136.1 110.7C136.8 111 137.1 111.3 137.2 112.1C137.3 112.5 137.2 113 137.2 113.4C137.1 114.7 136.9 116 136.7 117.2C136.1 120.2 135.3 123.3 134.2 126.2C133.8 127.2 133.4 128.3 132.8 129.2C132.5 129.8 132 130.5 131.5 130.5Z" fill="#A7CBF6"/>
<path d="M133.6 109.7L138.6 108.5V110.4L136.8 111.7L133.6 109.7Z" fill="url(#paint1_radial)"/>
<path d="M135.6 109.3C135.7 109.2 136.9 108.5 137.1 108.3C137.8 107.4 138.9 105.9 139.3 105.2C139.9 104.2 140.9 105 140.7 105.7C140.5 106.4 139.2 111.8 139.2 111.8C139.1 112 139 112.2 138.8 112.4C138.6 112.5 138.4 112.6 138.1 112.5L136.6 112.9C136.6 112.9 136.7 111.9 136.8 111.3C136.8 111.3 136.9 110.4 136.6 110.1C136.4 109.7 135.8 110 135.6 109.3Z" fill="url(#paint2_radial)"/>
<path d="M97.0001 132.7C107.6 133.5 113.8 131.5 122.2 120.9C124 118.6 136.6 115.1 138.3 113.8L136.2 110.9C136.2 110.9 115.1 116.4 112.4 119.3C109.5 122.2 93.0001 132.4 97.0001 132.7Z" fill="url(#paint3_radial)"/>
<path d="M137.2 140.1H105.7C104.6 140.1 103.6 139.2 103.6 138V133.1C103.6 132 104.5 131 105.7 131H137.2C138.3 131 139.3 131.9 139.3 133.1V138C139.2 139.2 138.3 140.1 137.2 140.1Z" fill="#CCCCCC"/>
<path d="M102.1 140.1H69.7001C68.5001 140.1 67.6001 139.2 67.6001 138V133.1C67.6001 131.9 68.5001 131 69.7001 131H102.1C103.3 131 104.2 131.9 104.2 133.1V138C104.2 139.2 103.3 140.1 102.1 140.1Z" fill="#CCCCCC"/>
<path d="M75.9001 131.4C75.9001 131.4 96.9001 134.6 103.6 131.3C110.3 128 113.1 123.3 115.4 120.2C116.7 118.4 136.1 110.9 136.1 110.9L134.2 109.7C134.2 109.7 114.2 108.9 108.2 111.8C102.3 114.6 70.7001 119.5 75.9001 131.4Z" fill="url(#paint4_radial)"/>
<path d="M138.2 113.8L138.9 113.7L139 111.5L138.8 109.4L136.1 110.8L138.2 113.8Z" fill="#9A6541"/>
<path d="M137.4 110.1C137.5 110 138.7 109.3 138.9 109.1C139.6 108.2 140.7 106.7 141.1 106C141.7 105 142.7 105.8 142.5 106.5C142.3 107.2 141 112.6 141 112.6C140.9 112.8 140.8 113 140.6 113.2C140.4 113.3 140.2 113.4 139.9 113.3L138.4 113.7C138.4 113.7 138.5 112.7 138.6 112.1C138.6 112.1 138.7 111.2 138.4 110.9C138.2 110.6 137.5 110.9 137.4 110.1Z" fill="#33312D"/>
<path d="M71 96.5L53.2 99.3C52 99.5 50.9 98.7 50.7 97.5L50.6 97.1C50.4 95.9 51.2 94.8 52.4 94.6L70.2 91.8C71.4 91.6 72.5 92.4 72.7 93.6L72.8 94C73.1 95.2 72.2 96.3 71 96.5Z" fill="#F7B548"/>
<path d="M69.5002 94.5L54.6002 96.8C54.7002 96.7 55.8002 96.1 55.6002 95.3L54.2002 86.6C54.1002 85.8 54.6002 85 55.4002 84.9L64.6002 83.4C65.4002 83.3 66.2002 83.8 66.3002 84.6L67.7002 93.3C68.0002 94.1 69.2002 94.3 69.5002 94.5Z" fill="#9A6541"/>
<path d="M86.4998 115.2C86.4998 115.2 82.4998 115.8 81.0998 113.7C79.6998 111.6 81.0998 114.1 81.0998 114.1L81.1998 119.4L87.4998 117.7L86.4998 115.2Z" fill="url(#paint5_radial)"/>
<path d="M55.2 97.1C54.6 97.2 54.3 97.1 54 96.9C56.4 95.5 58.5 94.4 61.3 93.9L62.4 93.7C65.3 93.3 68 93.8 70.6 94.5C70.4 94.7 70.1 94.8 69.5 94.9L55.2 97.1Z" fill="#9A6541"/>
<path d="M82.8999 108.4L88.2999 119.9C88.2999 119.9 75.4999 128.4 78.3999 131.7C78.3999 131.7 70.7999 131.4 67.6999 131C62.6999 130.5 49.0999 122.8 49.0999 122.8L46.6999 113.5C45.5999 106.2 48.5999 99.9 54.8999 96.3C54.9999 96.2 55.6999 95.8 55.9999 95.7C57.6999 94.9 62.0999 94.2 62.1999 94.2C64.4999 93.9 67.2999 93.6 69.3999 94.1C71.0999 94.5 72.6999 95 74.0999 95.8C78.7999 98.4 81.4999 102.7 82.8999 108.4Z" fill="url(#paint6_radial)"/>
<path d="M65 93.5L60.5 93.2C56.7 92.9 53.8 89.6 54.1 85.7L54.4 81.7C54.7 77.9 58 75 61.9 75.3L63.0999 75.4C66.8999 75.7 69.8 79 69.5 82.9L68.9 90.2C68.8 92.2 67 93.7 65 93.5Z" fill="#9A6541"/>
<path d="M69.7501 86.65C70.0501 86.55 70.3501 86.45 70.5501 86.15C70.7501 85.85 70.8501 85.65 70.8501 85.25C70.8501 84.75 70.6501 84.35 70.2501 84.05C69.7501 83.65 69.4501 83.35 69.4501 82.85L68.6501 83.65C68.1501 84.25 67.8501 84.75 67.8501 85.05C67.8501 85.45 67.9501 85.95 68.2501 86.35C68.5501 86.65 68.8501 86.85 69.2501 86.85C69.3501 86.75 69.5501 86.65 69.7501 86.65Z" fill="#9A6541"/>
<path d="M57.9 89.1L54 88.8L54.5 81.4L58.4 81.7L57.9 89.1Z" fill="url(#paint7_radial)"/>
<path d="M56.3501 83.85C56.3501 84.35 56.4501 84.75 56.7501 85.15C57.0501 85.55 57.7501 85.75 58.1501 85.75L58.3501 82.35C57.9501 82.35 57.1501 82.35 56.8501 82.65C56.5501 82.95 56.3501 83.35 56.3501 83.85Z" fill="#9A6541"/>
<path opacity="0.75" d="M67.0001 86.8C65.0001 86.7 64.8001 87.8 63.4001 87.7C61.7001 87.6 61.0001 87.2 60.2001 86.5C59.8001 86.1 59.5001 85.3 59.5001 84L59.6001 79.1L58.4001 78.9L58.2001 84.7C58.1001 87.6 57.7001 90.2 59.0001 91.7C60.0001 92.8 61.1001 93.3 62.3001 93.4L65.1001 93.6C67.1001 93.7 68.8001 92.3 68.9001 90.4L69.2001 87.1C69.2001 87 68.7001 86.9 67.0001 86.8Z" fill="url(#paint8_linear)"/>
<path d="M67.9025 84.1137C67.936 83.6731 67.74 83.299 67.4647 83.2781C67.1893 83.2571 66.9389 83.5973 66.9054 84.0378C66.8719 84.4783 67.0679 84.8525 67.3433 84.8734C67.6186 84.8944 67.869 84.5542 67.9025 84.1137Z" fill="#33312D"/>
<path d="M68.2999 88.7C68.2999 89.1 68.0999 89.4 67.7999 89.6C67.4999 89.8 66.9999 89.8 66.6999 89.7C66.2999 89.6 65.9999 89.3 65.7999 89C65.5999 88.7 65.5999 88.3 65.7999 88C65.8999 87.8 66.0999 87.7 66.2999 87.8H66.3999C66.9999 88 67.0999 87.9 67.1999 87.9L67.2999 88C67.3999 88.1 67.4999 88.1 67.7999 88.2H67.8999C68.0999 88.3 68.2999 88.5 68.2999 88.7Z" fill="#9A6541"/>
<path d="M53 101C52.5 99.6 57.5 95.4 61.8 95.8C61.8 95.8 66 96.4 68.5 96.1C68.5 96.1 68.5 96.1 68.6 96.1H68.7C69 96 69 96 69 96C69.1 95.9 68.3 95.4 68.4 95.1C68.5 94.8 69.6 94.6 70.1 95.1C70.9 95.7 70.7 97.7 69.8 99C68 101.8 63.4 101.8 61.7 101.8C61.3 101.8 60.9 101.8 60.7 101.8C59.9 101.8 59.2 101.7 58.1 101.7C54.8 101.5 53.1 101.4 53 101Z" fill="url(#paint9_radial)"/>
<path d="M71.1001 97L53.3001 99.8C52.1001 100 51.0001 99.2 50.8001 98L50.7001 97.6C50.5001 96.4 51.3001 95.3 52.5001 95.1L70.3001 92.3C71.5001 92.1 72.6001 92.9 72.8001 94.1L72.9001 94.5C73.1001 95.7 72.3001 96.8 71.1001 97Z" fill="#F7B548"/>
<path d="M92.1001 117H112.5C112.8 117 113.2 116.7 113.3 116.4L117.4 103.3C117.5 103 117.3 102.7 117 102.7H96.6001C96.3001 102.7 95.9002 103 95.8002 103.3L91.7001 116.4C91.6001 116.7 91.8001 117 92.1001 117Z" fill="#6B7984"/>
<path d="M91.6001 117H112C112.3 117 112.7 116.7 112.8 116.4L116.9 103.3C117 103 116.8 102.7 116.5 102.7H96.1001C95.8001 102.7 95.4001 103 95.3001 103.3L91.2001 116.4C91.1001 116.7 91.2001 117 91.6001 117Z" fill="#AEB9C1"/>
<path d="M92.5001 115.7H111.9C112.2 115.7 112.5 115.5 112.6 115.2L116.1 103.8C116.2 103.5 116 103.3 115.7 103.3H96.3001C96.0001 103.3 95.7001 103.5 95.6001 103.8L92.1001 115.2C92.0001 115.5 92.2001 115.7 92.5001 115.7Z" fill="white"/>
<path d="M90.9998 117.9C91.3998 117.8 91.7998 117.8 92.1998 117.7H93.6998C94.0998 117.6 93.9998 117.2 93.6998 117C93.2998 116.8 91.2998 116.5 91.2998 116.5C91.2998 116.5 92.9998 116.5 94.3998 116.9C95.5998 117.2 96.7998 117.6 97.5998 117.8C98.6998 117.9 98.6998 117 97.7998 116.8C97.5998 116.8 97.3998 116.7 97.0998 116.5C98.0998 116.4 97.8998 115.5 96.9998 115.5C95.8998 115.5 93.8998 114.1 92.3998 114.2C90.7998 114.3 86.2998 115.3 86.2998 115.3L86.4998 117.3C86.4998 117.3 87.6998 118.1 88.6998 118.2C89.2998 118.2 90.3998 118 90.9998 117.9Z" fill="url(#paint10_radial)"/>
<path d="M87.2001 118.1H112.7C113 118.1 113.3 117.8 113.3 117.5V117.4C113.3 117.1 113 116.8 112.7 116.8H87.2001C86.9001 116.8 86.6001 117.1 86.6001 117.4V117.5C86.6001 117.8 86.9001 118.1 87.2001 118.1Z" fill="#6B7984"/>
<path d="M37.8999 146.4H60.7999V113.2H33.8999C31.6999 113.2 29.9999 115.2 30.3999 117.4L35.1999 144.2C35.4999 145.5 36.5999 146.4 37.8999 146.4Z" fill="#CCCCCC"/>
<path d="M67.9002 146.6H59.4002C58.6002 146.6 57.9002 146 57.8002 145.2L54.3002 116.3C54.1002 114.7 55.4002 113.3 57.0002 113.3H65.2002C66.7002 113.3 67.9002 114.5 67.9002 116V146.6Z" fill="#B3B3B3"/>
<path d="M94.5998 117.1C94.9998 116.9 95.3998 116.7 95.6998 116.5L97.0998 116C97.3998 115.8 97.2998 115.5 96.8998 115.3C96.4998 115.2 94.4998 115.6 94.4998 115.6C94.4998 115.6 96.0998 115 97.4998 114.9C98.6998 114.8 99.9998 114.8 100.8 114.6C101.9 114.3 101.6 113.4 100.6 113.6C100.4 113.6 100.1 113.6 99.8998 113.6C100.8 113.2 100.3 112.4 99.3998 112.7C98.2998 113.1 95.9998 112.4 94.5998 113C93.0998 113.6 89.2998 116.1 89.2998 116.1L90.1998 117.9C90.1998 117.9 91.5998 118.2 92.4998 118C93.0998 117.9 94.0998 117.4 94.5998 117.1Z" fill="#9A6541"/>
<path d="M60.6999 98.2C62.1999 98.3 63.4999 98.7 64.3999 99.1C70.4999 102.3 66.6999 115.1 72.2999 118.1C73.3999 118.7 75.7999 118.4 80.5999 117.9C84.5999 117.4 87.5999 116.5 89.7999 116C90.0999 116.4 90.7999 117.4 90.9999 118.5C91.1999 119.6 91.0999 120.5 90.9999 121C89.7999 122.7 86.7999 126.3 81.6999 128.4C75.9999 130.7 70.9999 129.9 68.5999 129.4C65.2999 128.8 57.8999 127.4 53.6999 121C49.3999 114.3 49.7999 104.3 54.3999 100.5C57.1999 98.1 60.6999 98.2 60.6999 98.2Z" fill="#F7B548"/>
<path d="M289.7 66.4H269.7C268.7 66.4 267.8 65.6 267.8 64.5C267.8 63.5 268.6 62.6 269.7 62.6H289.7C290.7 62.6 291.6 63.4 291.6 64.5C291.6 65.6 290.8 66.4 289.7 66.4Z" fill="white"/>
<path d="M281.9 97.9H277.9C277.5 97.9 277.2 97.6 277.2 97.2V93.2C277.2 92.8 277.5 92.5 277.9 92.5H281.9C282.3 92.5 282.6 92.8 282.6 93.2V97.2C282.6 97.6 282.3 97.9 281.9 97.9Z" fill="#A2CE62"/>
<path d="M274.3 97.9H270.3C269.9 97.9 269.6 97.6 269.6 97.2V93.2C269.6 92.8 269.9 92.5 270.3 92.5H274.3C274.7 92.5 275 92.8 275 93.2V97.2C275 97.6 274.7 97.9 274.3 97.9Z" fill="#66AEE5"/>
<path d="M289.2 97.9H285.2C284.8 97.9 284.5 97.6 284.5 97.2V93.2C284.5 92.8 284.8 92.5 285.2 92.5H289.2C289.6 92.5 289.9 92.8 289.9 93.2V97.2C290 97.6 289.6 97.9 289.2 97.9Z" fill="#FF669A"/>
<path d="M281.9 106H277.9C277.5 106 277.2 105.7 277.2 105.3V101.3C277.2 100.9 277.5 100.6 277.9 100.6H281.9C282.3 100.6 282.6 100.9 282.6 101.3V105.3C282.6 105.7 282.3 106 281.9 106Z" fill="#8661C5"/>
<path d="M274.3 106H270.3C269.9 106 269.6 105.7 269.6 105.3V101.3C269.6 100.9 269.9 100.6 270.3 100.6H274.3C274.7 100.6 275 100.9 275 101.3V105.3C275 105.7 274.7 106 274.3 106Z" fill="#00C9D8"/>
<path d="M289.2 106H285.2C284.8 106 284.5 105.7 284.5 105.3V101.3C284.5 100.9 284.8 100.6 285.2 100.6H289.2C289.6 100.6 289.9 100.9 289.9 101.3V105.3C290 105.7 289.6 106 289.2 106Z" fill="#FFC733"/>
<path d="M210.6 128.2H162.3C160.8 128.2 159.6 127 159.6 125.5V28.3C159.6 26.8 160.8 25.6 162.3 25.6H210.6C212.1 25.6 213.3 26.8 213.3 28.3V125.6C213.3 127 212.1 128.2 210.6 128.2Z" fill="#CCE4F6"/>
<path d="M201.5 44.9H170.9C169.3 44.9 168 43.6 168 42C168 40.4 169.3 39.1 170.9 39.1H201.5C203.1 39.1 204.4 40.4 204.4 42C204.4 43.6 203.1 44.9 201.5 44.9Z" fill="white"/>
<path d="M189.4 102.5H183.3C182.7 102.5 182.2 102 182.2 101.4V95.3C182.2 94.7 182.7 94.2 183.3 94.2H189.4C190 94.2 190.5 94.7 190.5 95.3V101.4C190.5 102 190 102.5 189.4 102.5Z" fill="#A2CE62"/>
<path d="M177.7 102.5H171.6C171 102.5 170.5 102 170.5 101.4V95.3C170.5 94.7 171 94.2 171.6 94.2H177.7C178.3 94.2 178.8 94.7 178.8 95.3V101.4C178.8 102 178.3 102.5 177.7 102.5Z" fill="#66AEE5"/>
<path d="M200.6 102.5H194.5C193.9 102.5 193.4 102 193.4 101.4V95.3C193.4 94.7 193.9 94.2 194.5 94.2H200.6C201.2 94.2 201.7 94.7 201.7 95.3V101.4C201.7 102 201.2 102.5 200.6 102.5Z" fill="#FF669A"/>
<path d="M189.4 114.9H183.3C182.7 114.9 182.2 114.4 182.2 113.8V107.7C182.2 107.1 182.7 106.6 183.3 106.6H189.4C190 106.6 190.5 107.1 190.5 107.7V113.8C190.5 114.4 190 114.9 189.4 114.9Z" fill="#8661C5"/>
<path d="M177.7 114.9H171.6C171 114.9 170.5 114.4 170.5 113.8V107.7C170.5 107.1 171 106.6 171.6 106.6H177.7C178.3 106.6 178.8 107.1 178.8 107.7V113.8C178.8 114.4 178.3 114.9 177.7 114.9Z" fill="#00C9D8"/>
<path d="M200.6 114.9H194.5C193.9 114.9 193.4 114.4 193.4 113.8V107.7C193.4 107.1 193.9 106.6 194.5 106.6H200.6C201.2 106.6 201.7 107.1 201.7 107.7V113.8C201.7 114.4 201.2 114.9 200.6 114.9Z" fill="#FFC733"/>
</g>
<defs>
<linearGradient id="paint0_linear" x1="260.592" y1="154.953" x2="261.242" y2="144.076" gradientUnits="userSpaceOnUse">
<stop stop-color="#AEB9C1"/>
<stop offset="0.4724" stop-color="#C9CFD6"/>
</linearGradient>
<radialGradient id="paint1_radial" cx="0" cy="0" r="1" gradientUnits="userSpaceOnUse" gradientTransform="translate(137.296 111.36) scale(2.0841)">
<stop stop-color="#594539"/>
<stop offset="1" stop-color="#9A6541"/>
</radialGradient>
<radialGradient id="paint2_radial" cx="0" cy="0" r="1" gradientUnits="userSpaceOnUse" gradientTransform="translate(139.853 111.236) scale(3.40559)">
<stop/>
<stop offset="1" stop-color="#33312D"/>
</radialGradient>
<radialGradient id="paint3_radial" cx="0" cy="0" r="1" gradientUnits="userSpaceOnUse" gradientTransform="translate(112.582 118.287) rotate(-29.7669) scale(20.004 7.65777)">
<stop stop-color="#33312D"/>
<stop offset="1" stop-color="#605D5A"/>
</radialGradient>
<radialGradient id="paint4_radial" cx="0" cy="0" r="1" gradientUnits="userSpaceOnUse" gradientTransform="translate(144.903 108.474) scale(13.4531)">
<stop stop-color="#33312D"/>
<stop offset="1" stop-color="#605D5A"/>
</radialGradient>
<radialGradient id="paint5_radial" cx="0" cy="0" r="1" gradientUnits="userSpaceOnUse" gradientTransform="translate(84.0372 116.118) scale(5.9649)">
<stop offset="0.0224909" stop-color="#E3646A"/>
<stop offset="0.076131" stop-color="#E87762"/>
<stop offset="0.1593" stop-color="#ED8E58"/>
<stop offset="0.2559" stop-color="#F29F51"/>
<stop offset="0.3727" stop-color="#F5AC4C"/>
<stop offset="0.5304" stop-color="#F6B349"/>
<stop offset="0.907" stop-color="#F7B548"/>
</radialGradient>
<radialGradient id="paint6_radial" cx="0" cy="0" r="1" gradientUnits="userSpaceOnUse" gradientTransform="translate(69.0742 115.876) rotate(-8.66165) scale(28.1375)">
<stop offset="0.1306" stop-color="#E3646A"/>
<stop offset="0.1777" stop-color="#E87762"/>
<stop offset="0.2507" stop-color="#ED8E58"/>
<stop offset="0.3355" stop-color="#F29F51"/>
<stop offset="0.438" stop-color="#F5AC4C"/>
<stop offset="0.5764" stop-color="#F6B349"/>
<stop offset="0.907" stop-color="#F7B548"/>
</radialGradient>
<radialGradient id="paint7_radial" cx="0" cy="0" r="1" gradientUnits="userSpaceOnUse" gradientTransform="translate(57.3415 84.8621) rotate(4.35086) scale(2.96295)">
<stop stop-color="#59453A"/>
<stop offset="1" stop-color="#9A6541" stop-opacity="0"/>
</radialGradient>
<linearGradient id="paint8_linear" x1="62.969" y1="92.2176" x2="63.7923" y2="81.5832" gradientUnits="userSpaceOnUse">
<stop offset="0.0143947" stop-color="#48372D"/>
<stop offset="0.4807" stop-color="#59453A"/>
<stop offset="1" stop-color="#9A6541"/>
</linearGradient>
<radialGradient id="paint9_radial" cx="0" cy="0" r="1" gradientUnits="userSpaceOnUse" gradientTransform="translate(64.5951 94.6507) rotate(173.931) scale(10.5251 6.60989)">
<stop stop-color="#E3646A"/>
<stop offset="0.166" stop-color="#E87762"/>
<stop offset="0.5175" stop-color="#F09954"/>
<stop offset="0.8081" stop-color="#F5AD4B"/>
<stop offset="1" stop-color="#F7B548"/>
</radialGradient>
<radialGradient id="paint10_radial" cx="0" cy="0" r="1" gradientUnits="userSpaceOnUse" gradientTransform="translate(93.4434 118.746) rotate(7.94374) scale(4.64608)">
<stop stop-color="#594539"/>
<stop offset="1" stop-color="#9A6541"/>
</radialGradient>
<clipPath id="clip0">
<rect width="328" height="164" fill="white"/>
</clipPath>
</defs>
</svg>
